<svg xmlns="http://www.w3.org/2000/svg" xmlns:xlink="http://www.w3.org/1999/xlink" width="200" zoomAndPan="magnify" viewBox="0 0 150 157.92" height="200" preserveAspectRatio="xMidYMid meet" version="1.0"><defs><clipPath id="09a449d84e"><path d="M 25.242188 41.511719 L 124.941406 41.511719 L 124.941406 149.925781 L 25.242188 149.925781 Z M 25.242188 41.511719 " clip-rule="nonzero"/></clipPath></defs><g clip-path="url(#09a449d84e)"><path fill="#f3c064" d="M 124.339844 61.300781 C 124.257812 60.921875 124.179688 60.546875 124.101562 60.175781 C 122.972656 54.921875 121.84375 49.664062 120.714844 44.410156 C 120.464844 43.238281 120.042969 41.859375 118.652344 41.785156 C 118.378906 41.769531 118.105469 41.824219 117.84375 41.914062 C 114.457031 43.09375 113.488281 48.53125 109.945312 48.519531 C 109.003906 48.515625 108.121094 48.078125 107.199219 47.890625 C 104.167969 47.285156 100.707031 49.359375 98.089844 47.707031 C 96.742188 46.855469 96.101562 45.269531 95.265625 43.90625 C 94.347656 42.414062 92.714844 40.976562 90.972656 41.710938 C 90.269531 42.011719 89.742188 42.613281 89.4375 43.316406 C 88.765625 44.855469 89.035156 46.492188 89.003906 48.097656 C 88.929688 51.769531 87.300781 55.199219 86.058594 58.65625 C 84.816406 62.113281 83.976562 66.027344 85.445312 69.394531 C 85.988281 70.640625 86.832031 72.117188 85.601562 73.167969 C 85.335938 73.394531 85.015625 73.542969 84.683594 73.636719 C 72.027344 77.144531 57.921875 75.757812 46.378906 82.035156 C 45.082031 82.738281 43.726562 83.558594 42.25 83.460938 C 41.164062 83.386719 40.171875 82.8125 39.292969 82.167969 C 34.214844 78.445312 31.488281 71.753906 32.527344 65.542969 C 33.5625 59.332031 38.3125 53.882812 44.324219 52.019531 C 45.972656 51.503906 47.953125 51.042969 48.425781 49.265625 C 48.742188 48.082031 48.183594 46.863281 47.175781 46.175781 C 45.304688 44.898438 43.066406 45.382812 41.109375 46.136719 C 33.125 49.1875 27.09375 56.863281 26.011719 65.351562 C 24.929688 73.84375 28.84375 82.78125 35.804688 87.746094 C 36.332031 88.121094 36.914062 88.523438 37.097656 89.140625 C 37.296875 89.800781 36.992188 90.5 36.707031 91.128906 C 35.15625 94.574219 34.152344 98.265625 33.730469 102.019531 C 33.332031 105.589844 33.457031 109.207031 32.96875 112.761719 C 32.476562 116.320312 31.273438 119.941406 28.6875 122.429688 C 27.886719 123.203125 26.953125 123.867188 26.375 124.820312 C 25.75 125.847656 25.617188 127.089844 25.523438 128.292969 C 25.21875 132.144531 25.167969 136.019531 25.378906 139.875 C 25.550781 143.089844 25.6875 146.132812 28.507812 148.292969 C 30.28125 149.652344 32.917969 149.996094 34.769531 148.746094 C 36.617188 147.488281 37.171875 144.515625 35.601562 142.921875 C 35.0625 142.375 34.339844 142.019531 33.839844 141.4375 C 33.039062 140.488281 32.972656 139.140625 32.945312 137.898438 C 32.882812 135.175781 32.914062 132.171875 34.710938 130.117188 C 36.121094 128.5 38.296875 127.859375 40.28125 127.054688 C 45.335938 125.015625 49.78125 121.492188 52.9375 117.046875 C 53.152344 116.742188 53.625 116.894531 53.636719 117.265625 C 53.75 121.324219 49.792969 125.007812 49.882812 129.226562 C 49.90625 130.347656 50.21875 131.441406 50.535156 132.515625 C 51.199219 134.800781 51.859375 137.085938 52.527344 139.375 C 53.242188 141.824219 53.988281 144.355469 55.613281 146.324219 C 57.296875 148.371094 60.183594 149.683594 62.65625 148.640625 C 64.367188 147.921875 65.375 146.078125 65.0625 144.246094 C 64.742188 142.324219 63.199219 141.992188 62.039062 141.144531 C 59.769531 139.488281 59.355469 136.324219 59.136719 133.519531 C 59.046875 132.394531 58.96875 131.214844 59.398438 130.167969 C 60.328125 127.894531 63.136719 127.183594 65.113281 125.71875 C 67.121094 124.230469 68.304688 121.886719 70.097656 120.144531 C 72.898438 117.433594 77.226562 116.410156 80.945312 117.585938 C 81.683594 117.820312 82.429688 118.164062 82.863281 118.804688 C 83.273438 119.414062 83.332031 120.1875 83.371094 120.914062 C 83.695312 126.382812 84.019531 131.847656 84.34375 137.316406 C 84.519531 140.21875 84.714844 143.210938 86.019531 145.808594 C 87.324219 148.402344 90.050781 150.515625 92.9375 150.171875 C 95.824219 149.828125 98.070312 146.222656 96.464844 143.800781 C 95.804688 142.804688 94.683594 142.191406 94 141.207031 C 93.035156 139.832031 93.105469 138.011719 93.214844 136.332031 C 93.554688 131.066406 93.894531 125.796875 94.234375 120.53125 C 94.371094 118.332031 95.480469 115.335938 97.734375 116.105469 C 98.800781 116.46875 99.472656 117.527344 99.445312 118.660156 C 99.3125 124.105469 99.179688 129.550781 99.039062 134.996094 C 98.964844 137.921875 98.910156 140.949219 100.039062 143.648438 C 101.171875 146.34375 103.820312 148.640625 106.734375 148.382812 C 109.644531 148.121094 111.941406 144.425781 110.238281 142.046875 C 109.710938 141.3125 108.917969 140.804688 108.382812 140.082031 C 107.425781 138.777344 107.457031 137.023438 107.550781 135.410156 C 108.085938 126.566406 109.449219 117.769531 111.621094 109.175781 C 113.628906 101.234375 116.328125 93.425781 117.257812 85.292969 C 117.464844 83.441406 117.589844 81.550781 118.222656 79.796875 C 119.613281 75.957031 123.289062 73.242188 124.488281 69.34375 C 125.285156 66.75 124.886719 63.980469 124.339844 61.300781 Z M 124.339844 61.300781 " fill-opacity="1" fill-rule="nonzero"/></g></svg>