<svg xmlns="http://www.w3.org/2000/svg" xmlns:xlink="http://www.w3.org/1999/xlink" width="200" zoomAndPan="magnify" viewBox="0 0 150 157.92" height="200" preserveAspectRatio="xMidYMid meet" version="1.0"><defs><clipPath id="ad0940ab17"><path d="M 25.152344 59.324219 L 124.851562 59.324219 L 124.851562 149.925781 L 25.152344 149.925781 Z M 25.152344 59.324219 " clip-rule="nonzero"/></clipPath></defs><g clip-path="url(#ad0940ab17)"><path fill="#f3c064" d="M 34.242188 87.757812 C 37.539062 86.5625 41.132812 87.671875 43.914062 89.558594 C 49.347656 93.28125 52.089844 100.085938 52.558594 106.460938 C 52.902344 110.742188 52.257812 115.019531 52.902344 119.300781 C 53.203125 121.269531 54.3125 123.109375 54.226562 125.125 C 54.144531 127.222656 53.929688 129.148438 54.359375 131.246094 C 54.785156 133.167969 55.515625 135.015625 56.496094 136.722656 C 57.4375 138.347656 58.59375 139.890625 59.234375 141.6875 C 59.832031 143.398438 60.046875 145.242188 61.15625 146.738281 C 64.496094 151.144531 71.171875 149.734375 75.878906 149.566406 C 78.015625 149.519531 80.160156 149.648438 82.296875 149.566406 C 83.710938 149.519531 85.339844 149.265625 86.023438 147.855469 C 86.664062 146.484375 86.152344 144.730469 84.867188 143.917969 C 84.222656 143.488281 81.914062 143.019531 83.453125 142.03125 C 84.949219 141.089844 86.449219 140.40625 87.863281 139.25 C 89.355469 138.054688 90.511719 136.597656 91.929688 135.3125 C 94.328125 133.175781 95.953125 140.875 96.296875 142.164062 C 97.070312 145.242188 96.894531 149.523438 101 149.738281 C 103.015625 149.824219 105.070312 149.738281 107.078125 149.738281 C 108.664062 149.695312 110.585938 149.910156 112.042969 149.269531 C 113.539062 148.628906 114.058594 147.046875 113.84375 145.546875 C 113.628906 143.878906 112.472656 143.234375 111.359375 142.167969 C 110.035156 140.882812 110.203125 139.171875 110.632812 137.5 C 111.101562 135.578125 111.660156 133.691406 112.386719 131.855469 C 113.84375 128.128906 115.8125 124.621094 117.183594 120.851562 C 118.59375 116.875 119.105469 112.675781 118.808594 108.484375 C 118.679688 106.429688 118.378906 104.332031 117.949219 102.277344 C 117.566406 100.480469 116.792969 98.769531 116.578125 96.96875 C 116.363281 95.171875 117.308594 94.144531 118.847656 93.375 C 120.386719 92.609375 121.714844 91.707031 122.742188 90.25 C 124.878906 87.300781 125.394531 83.1875 124.234375 79.722656 C 123.636719 77.921875 122.527344 76.464844 121.539062 74.886719 C 120.511719 73.175781 120.253906 71.421875 120.214844 69.453125 C 120.167969 67.4375 120.34375 65.429688 120.257812 63.417969 C 120.214844 62.175781 120.128906 59.777344 118.589844 59.394531 C 117.433594 59.09375 116.191406 60.121094 115.378906 60.804688 C 113.921875 62.089844 112.851562 63.714844 111.785156 65.296875 C 110.839844 66.667969 109.859375 68.078125 108.230469 68.636719 C 106.476562 69.234375 104.589844 68.933594 102.796875 69.234375 C 100.871094 69.617188 99.074219 70.214844 97.101562 69.578125 C 95.394531 69.019531 93.894531 67.992188 92.4375 66.964844 C 90.726562 65.769531 85.632812 62.046875 85.761719 66.535156 C 85.890625 70.304688 87.515625 73.898438 87.902344 77.664062 C 88.285156 81.515625 86.316406 85.109375 86.703125 88.917969 C 86.917969 90.804688 87.863281 92.429688 89.1875 93.753906 C 90.214844 94.738281 91.5 95.292969 92.527344 96.238281 C 94.925781 98.375 89.617188 102.144531 87.820312 102.828125 C 86.066406 103.507812 84.144531 103.425781 82.257812 103.507812 C 80.289062 103.59375 78.320312 103.769531 76.394531 104.152344 C 72.542969 104.925781 69.207031 106.636719 66.121094 109.03125 C 64.667969 110.144531 63.296875 111.386719 61.839844 112.585938 C 61.457031 112.929688 61.027344 113.269531 60.730469 113.183594 C 60.558594 113.140625 60.429688 112.972656 60.261719 112.542969 C 60.089844 111.601562 60.519531 110.488281 60.605469 109.546875 C 61.460938 101.96875 59.707031 93.792969 54.910156 87.761719 C 50.628906 82.367188 44.125 78.945312 37.195312 79.160156 C 33.816406 79.242188 30.304688 80.183594 27.695312 82.367188 C 25.554688 84.167969 24.101562 87.546875 26.109375 90.03125 C 28.636719 93.144531 31.847656 88.65625 34.242188 87.757812 Z M 34.242188 87.757812 " fill-opacity="1" fill-rule="nonzero"/></g></svg>